<?xml version="1.0" encoding="UTF-8"?>
<!DOCTYPE svg PUBLIC "-//W3C//DTD SVG 1.0//EN" "http://www.w3.org/TR/2001/REC-SVG-20010904/DTD/svg10.dtd">
<svg xmlns="http://www.w3.org/2000/svg" width="100%" height="100%">
    <desc></desc>
    <g transform="translate(300, 1900), scale(.75)"></g>
    <line x1="189" x2="189" y1="0" y2="500" stroke-width="3" stroke="black"></line>
    <line x1="189" x2="689" y1="500" y2="500" stroke-width="3" stroke="black"></line>
    <text x="250" y="540" font-size="20" stroke="black">200</text>
    <line x1="265" x2="265" y1="490" y2="510" stroke-width="5" stroke="black"></line>
    <text x="350" y="540" font-size="20" stroke="black">400</text>
    <line x1="365" x2="365" y1="490" y2="510" stroke-width="5" stroke="black"></line>
    <text x="450" y="540" font-size="20" stroke="black">600</text>
    <line x1="465" x2="465" y1="490" y2="510" stroke-width="5" stroke="black"></line>
    <text x="550" y="540" font-size="20" stroke="black">800</text>
    <line x1="565" x2="565" y1="490" y2="510" stroke-width="5" stroke="black"></line>
    <text x="-120" y ="75" font-size="20" transform="rotate(270,100,100)">Characters</text>
    <text x="350" y ="575" font-size="20" >Lines of Dialogue</text>
    
    <text x="125" y="35" font-size="20" stroke="black">Cloud</text>
    <line x1="191" x2="600" y1="30" y2="30" stroke-width="30" stroke="cyan"></line>
    
    <text x="125" y="75" font-size="20" stroke="black">Barret</text>
    <line x1="191" x2="375" y1="70" y2="70" stroke-width="30" stroke="grey"></line>
    
    <text x="135" y="115" font-size="20" stroke="black">Tifa</text>
    <line x1="190" x2="450" y1="110" y2="110" stroke-width="30" stroke="black"></line>
    
    <text x="135" y="155" font-size="20" stroke="black">Aerith</text>
    <line x1="191" x2="300" y1="150" y2="150" stroke-width="30" stroke="pink"></line>
    
    <text x="110" y="195" font-size="20" stroke="black">Red XIII</text>
    <line x1="191" x2="340" y1="190" y2="190" stroke-width="30" stroke="orange"></line>
    
    <text x="135" y="235" font-size="20" stroke="black">Cid</text>
    <line x1="191" x2="320" y1="230" y2="230" stroke-width="30" stroke="yellow"></line>
    
    <text x="115" y="275" font-size="20" stroke="black">Cait Sith</text>
    <line x1="191" x2="260" y1="270" y2="270" stroke-width="30" stroke="black"></line>
    
    <text x="115" y="315" font-size="20" stroke="black">Yuffie</text>
    <line x1="191" x2="275" y1="310" y2="310" stroke-width="30" stroke="green"></line>
    
    <text x="115" y="355" font-size="20" stroke="black">Vincent</text>
    <line x1="191" x2="250" y1="350" y2="350" stroke-width="30" stroke="red"></line>
    
</svg>